<svg width="166" height="282" viewBox="0 0 166 282" fill="none" xmlns="http://www.w3.org/2000/svg">
<path fill-rule="evenodd" clip-rule="evenodd" d="M112.397 155.317C101.193 166.214 85.8966 172.926 69.0327 172.926C34.6818 172.926 6.83491 145.079 6.83491 110.728C6.83491 96.9886 11.2898 84.2896 18.834 73.9969C7.21655 85.2971 0 101.099 0 118.586C0 152.936 27.8469 180.783 62.1978 180.783C82.8092 180.783 101.079 170.758 112.397 155.317Z" fill="#CA868A"/>
<circle cx="64.7634" cy="59.6339" r="7.68929" fill="#B7EB54"/>
<path d="M48.5252 56.7299C43.6041 69.8529 44.766 84.6391 45.9621 90.3919C37.8172 81.2217 25.0816 58.4728 39.2982 40.8387C53.5149 23.2046 53.1959 6.26535 51.2593 0C56.5566 16.4038 54.6766 40.326 48.5252 56.7299Z" fill="#CA868A"/>
<path d="M86.1194 60.8315C62.6072 75.1848 61.8554 93.5821 64.4185 100.987C64.4185 91.2811 85.1511 76.6657 95.5174 70.5712C115.475 52.527 112.035 24.0937 107.82 12.1326C110.383 22.385 109.632 46.4781 86.1194 60.8315Z" fill="#F2C5C5"/>
<path d="M107.82 79.6275C89.2293 84.5486 76.8353 94.5504 72.9621 98.9362C79.7971 94.4251 102.238 93.4113 112.605 93.4682C147.6 92.1012 159.082 61.0023 160.449 45.6238C151.735 70.5712 131.059 73.4761 107.82 79.6275Z" fill="#F2C5C5"/>
<path d="M115.851 107.48C97.1236 101.328 79.4553 104.917 72.9621 107.48C75.9809 107.48 87.1788 109.599 107.82 118.074C128.462 126.549 151.507 114.543 160.449 107.48C154.639 111.239 139.261 115.169 115.851 107.48Z" fill="#F2C5C5"/>
<path d="M74.0211 114.205C73.6458 114.118 73.2921 114.04 72.9621 113.973C73.2204 113.973 73.5727 114.044 74.0211 114.205C80.6434 115.753 93.9898 120.513 102.011 129.181C112.605 140.629 131.742 141.654 140.799 138.066C131.287 143.363 108.914 149.959 95.5174 133.965C83.9076 120.104 76.9349 115.253 74.0211 114.205Z" fill="#F2C5C5"/>
<path d="M55.704 89.4965V75.5265C56.2923 78.0564 56.6375 83.0049 55.704 89.4965V197.017C55.3622 190.125 53.5168 173.3 48.869 161.134C43.0593 145.926 38.6166 131.915 48.869 111.068C52.8349 103.004 54.8299 95.5741 55.704 89.4965Z" fill="#F2C5C5"/>
<path d="M64.4185 217.18V111.068C64.4185 113.939 70.1143 124.339 72.9621 129.181C86.8025 150.882 78.7722 179.93 72.9621 187.619C68.3141 193.771 65.3297 209.89 64.4185 217.18Z" fill="#F2C5C5"/>
<path d="M21.2082 241.72C24.076 241.72 26.6312 242.216 28.874 243.209C31.1167 244.202 32.9918 245.562 34.4992 247.29C36.0434 248.981 37.22 250.948 38.0288 253.191C38.8377 255.434 39.2421 257.787 39.2421 260.25C39.2421 262.677 38.8377 265.03 38.0288 267.309C37.2567 269.552 36.0986 271.538 34.5544 273.266C33.0102 274.994 31.08 276.391 28.7637 277.457C26.4842 278.486 23.837 279.001 20.8222 279.001C17.8809 279.001 15.3072 278.505 13.1012 277.512C10.932 276.519 9.0937 275.196 7.58628 273.541C6.11563 271.85 5.01264 269.902 4.27731 267.696C3.54198 265.453 3.17432 263.1 3.17432 260.636C3.17432 258.026 3.57875 255.581 4.38761 253.302C5.19647 250.985 6.37299 248.981 7.91718 247.29C9.46137 245.562 11.3548 244.202 13.5976 243.209C15.8403 242.216 18.3772 241.72 21.2082 241.72ZM21.1531 276.078C23.359 276.078 25.3077 275.674 26.9989 274.865C28.7269 274.019 30.1792 272.88 31.3557 271.446C32.5322 270.012 33.433 268.339 34.058 266.427C34.6831 264.515 34.9956 262.475 34.9956 260.305C34.9956 258.1 34.6647 256.041 34.0029 254.129C33.3779 252.217 32.4587 250.562 31.2454 249.165C30.0321 247.731 28.5431 246.628 26.7783 245.856C25.0503 245.047 23.0833 244.643 20.8773 244.643C18.7081 244.643 16.7779 245.047 15.0866 245.856C13.4321 246.628 12.035 247.713 10.8953 249.11C9.7555 250.507 8.89149 252.162 8.30322 254.074C7.75173 255.949 7.47598 258.008 7.47598 260.25C7.47598 262.714 7.80688 264.92 8.46867 266.868C9.13047 268.817 10.068 270.471 11.2813 271.832C12.4946 273.192 13.9285 274.24 15.583 274.975C17.2742 275.711 19.1309 276.078 21.1531 276.078ZM54.8878 278.67L54.3363 278.395L51.0273 269.571C50.917 269.24 50.678 268.633 50.3103 267.751C49.9794 266.868 49.5934 265.894 49.1522 264.828C48.711 263.762 48.2514 262.659 47.7735 261.519C47.3323 260.342 46.9278 259.313 46.5602 258.43C46.1925 257.548 45.8616 256.849 45.5675 256.335C45.1998 255.746 44.777 255.287 44.2991 254.956C43.8579 254.625 43.2512 254.423 42.4791 254.349L42.1482 254.074V253.302L42.3688 253.081C42.9938 253.154 43.6556 253.228 44.3542 253.302C45.0528 253.375 45.6962 253.412 46.2844 253.412H48.4353C49.0235 253.412 49.7221 253.375 50.5309 253.302C51.3766 253.228 52.167 253.154 52.9024 253.081L53.123 253.302V253.963L52.9024 254.184C52.0935 254.257 51.4133 254.478 50.8618 254.846C50.3471 255.177 50.0897 255.673 50.0897 256.335C50.0897 256.776 50.2552 257.566 50.5861 258.706C50.9538 259.809 51.3582 261.004 51.7994 262.291C52.2406 263.541 52.6634 264.717 53.0678 265.82C53.4723 266.887 53.748 267.604 53.8951 267.971L56.5974 275.141L59.2446 268.799C59.5019 268.173 59.8512 267.328 60.2924 266.262C60.7336 265.195 61.1748 264.056 61.616 262.842C62.0572 261.629 62.4249 260.453 62.719 259.313C63.0499 258.136 63.2153 257.144 63.2153 256.335C63.2153 255.526 62.9212 254.993 62.3329 254.735C61.7447 254.441 61.0829 254.257 60.3476 254.184L60.127 253.963V253.302L60.3476 253.081C61.7814 253.302 63.1234 253.412 64.3735 253.412H66.6346C67.2596 253.412 67.8663 253.375 68.4545 253.302C69.0796 253.228 69.7414 253.154 70.4399 253.081L70.6605 253.302V254.074L70.3296 254.349C69.7046 254.423 69.1531 254.607 68.6751 254.901C68.2339 255.195 67.8111 255.673 67.4067 256.335C67.0758 256.923 66.6898 257.658 66.2486 258.541C65.8441 259.423 65.4213 260.379 64.9801 261.408C64.5757 262.438 64.1529 263.486 63.7117 264.552C63.3072 265.618 62.9212 266.611 62.5535 267.53C62.2226 268.449 61.9285 269.258 61.6711 269.957C61.4505 270.618 61.2851 271.078 61.1748 271.335L58.3622 278.395L54.8878 278.67ZM94.2451 273.652C93.2892 275.196 92.0575 276.483 90.5501 277.512C89.0794 278.505 87.2595 279.001 85.0903 279.001C84.0241 279.001 82.9946 278.872 82.0019 278.615C81.046 278.395 80.1452 278.008 79.2996 277.457C78.4907 276.905 77.7922 276.17 77.2039 275.251C76.6157 274.332 76.1928 273.174 75.9355 271.777C75.7516 270.821 75.6597 269.828 75.6597 268.799C75.6965 267.732 75.6965 266.666 75.6597 265.6C75.6597 265.122 75.6413 264.478 75.6046 263.67C75.6046 262.824 75.6046 261.978 75.6046 261.133C75.6046 260.25 75.6046 259.441 75.6046 258.706C75.6046 257.971 75.6046 257.438 75.6046 257.107C75.6046 256.702 75.5127 256.353 75.3288 256.059C75.145 255.728 74.9979 255.489 74.8876 255.342C74.52 254.938 74.0604 254.699 73.5089 254.625C72.9574 254.515 72.3875 254.46 71.7993 254.46L71.6338 254.239V253.467L71.7993 253.302H72.792C73.417 253.302 74.2075 253.302 75.1634 253.302C76.1193 253.265 76.9466 253.191 77.6451 253.081L79.5753 252.805L79.9062 253.302C79.8327 253.449 79.7776 253.724 79.7408 254.129C79.704 254.496 79.6673 254.901 79.6305 255.342C79.5937 255.783 79.5753 256.206 79.5753 256.61C79.5753 257.015 79.5753 257.327 79.5753 257.548C79.5753 258.173 79.557 258.872 79.5202 259.644C79.5202 260.379 79.5018 261.133 79.465 261.905C79.465 262.677 79.4467 263.412 79.4099 264.111C79.4099 264.809 79.4099 265.398 79.4099 265.876C79.4099 266.684 79.4283 267.604 79.465 268.633C79.5386 269.626 79.6673 270.49 79.8511 271.225C80.2188 272.953 80.9725 274.24 82.1122 275.086C83.252 275.931 84.5756 276.354 86.083 276.354C87.2227 276.354 88.2706 276.133 89.2265 275.692C90.1824 275.214 91.0097 274.644 91.7082 273.983C92.4436 273.321 93.0318 272.622 93.473 271.887C93.951 271.115 94.2635 270.416 94.4106 269.791V262.622C94.4106 261.85 94.3922 261.206 94.3554 260.692C94.3554 260.14 94.337 259.662 94.3003 259.258C94.3003 258.853 94.2819 258.486 94.2451 258.155C94.2451 257.824 94.2267 257.474 94.19 257.107C94.1164 256.702 94.0061 256.353 93.8591 256.059C93.7488 255.728 93.6385 255.507 93.5282 255.397C93.1605 254.956 92.7009 254.699 92.1494 254.625C91.5979 254.515 91.0281 254.46 90.4398 254.46L90.2192 254.239V253.467L90.4398 253.302H91.4325C92.0575 253.302 92.848 253.302 93.8039 253.302C94.7598 253.265 95.5687 253.191 96.2305 253.081L98.1607 252.805L98.4916 253.302C98.4181 253.449 98.3629 253.724 98.3262 254.129C98.2894 254.496 98.2526 254.901 98.2159 255.342C98.1791 255.783 98.1607 256.206 98.1607 256.61C98.1607 257.015 98.1607 257.327 98.1607 257.548C98.1607 257.842 98.1423 258.118 98.1056 258.375C98.1056 258.633 98.1056 258.945 98.1056 259.313C98.1056 259.68 98.0872 260.122 98.0504 260.636C98.0504 261.114 98.0504 261.758 98.0504 262.567V268.743C98.0504 269.552 98.0504 270.214 98.0504 270.729C98.0872 271.243 98.1056 271.685 98.1056 272.052C98.1423 272.42 98.1607 272.769 98.1607 273.1C98.1975 273.394 98.2159 273.725 98.2159 274.093C98.2894 274.938 98.3813 275.564 98.4916 275.968C98.6019 276.336 98.7858 276.611 99.0431 276.795C99.3373 277.089 99.7601 277.273 100.312 277.347C100.9 277.383 101.488 277.402 102.076 277.402L102.297 277.622L102.407 278.395L102.297 278.615C101.635 278.542 100.918 278.486 100.146 278.45C99.374 278.413 98.6203 278.395 97.885 278.395C96.4879 278.395 95.2194 278.45 94.0797 278.56L93.7488 278.008C93.8591 277.531 93.9694 276.905 94.0797 276.133C94.2267 275.361 94.337 274.571 94.4106 273.762L94.2451 273.652ZM105.034 238.301L105.255 238.08H106.247C106.872 238.08 107.663 238.08 108.619 238.08C109.575 238.043 110.402 237.97 111.101 237.86L113.086 237.584L113.417 238.08C113.343 238.227 113.288 238.503 113.251 238.907C113.215 239.275 113.178 239.68 113.141 240.121C113.104 240.562 113.068 240.985 113.031 241.389C113.031 241.794 113.031 242.106 113.031 242.327C112.994 242.915 112.957 243.467 112.921 243.981C112.921 244.496 112.902 245.103 112.865 245.801C112.865 246.5 112.865 247.345 112.865 248.338C112.865 249.331 112.865 250.599 112.865 252.143V264.166C112.865 265.71 112.865 266.979 112.865 267.971C112.902 268.964 112.921 269.81 112.921 270.508C112.957 271.207 112.976 271.813 112.976 272.328C113.012 272.843 113.049 273.431 113.086 274.093C113.16 274.865 113.233 275.453 113.307 275.858C113.417 276.225 113.619 276.538 113.913 276.795C114.207 277.053 114.612 277.218 115.127 277.292C115.678 277.365 116.23 277.402 116.781 277.402L117.057 277.678L117.167 278.395L117.057 278.615C116.799 278.615 116.413 278.597 115.899 278.56C115.384 278.523 114.832 278.486 114.244 278.45C113.656 278.45 113.104 278.431 112.59 278.395C112.075 278.395 111.689 278.395 111.432 278.395H110.659C110.402 278.395 109.998 278.395 109.446 278.395C108.931 278.431 108.38 278.45 107.792 278.45C107.24 278.486 106.689 278.523 106.137 278.56C105.622 278.597 105.236 278.615 104.979 278.615L104.924 278.395L104.979 277.622L105.2 277.402C105.788 277.402 106.358 277.383 106.909 277.347C107.498 277.273 107.939 277.089 108.233 276.795C108.527 276.538 108.711 276.207 108.784 275.803C108.895 275.398 108.987 274.828 109.06 274.093C109.097 273.615 109.115 273.137 109.115 272.659C109.152 272.181 109.17 271.63 109.17 271.004C109.207 270.343 109.226 269.589 109.226 268.743C109.226 267.861 109.226 266.776 109.226 265.49V252.254C109.226 250.746 109.226 249.478 109.226 248.448C109.226 247.382 109.207 246.463 109.17 245.691C109.17 244.919 109.152 244.239 109.115 243.65C109.115 243.062 109.097 242.474 109.06 241.886C109.023 241.481 108.913 241.132 108.729 240.838C108.582 240.544 108.453 240.323 108.343 240.176C107.975 239.771 107.516 239.514 106.964 239.404C106.413 239.294 105.843 239.238 105.255 239.238L105.034 239.018V238.301ZM132.362 278.615C132.105 278.615 131.719 278.597 131.204 278.56C130.69 278.523 130.138 278.486 129.55 278.45C128.962 278.45 128.41 278.431 127.895 278.395C127.381 278.395 126.995 278.395 126.737 278.395H125.965C125.708 278.395 125.303 278.395 124.752 278.395C124.237 278.431 123.686 278.45 123.097 278.45C122.546 278.486 121.994 278.523 121.443 278.56C120.928 278.597 120.542 278.615 120.285 278.615L120.23 278.395L120.285 277.622L120.505 277.402C121.094 277.402 121.663 277.383 122.215 277.347C122.803 277.273 123.244 277.089 123.539 276.795C123.833 276.538 124.017 276.207 124.09 275.803C124.2 275.398 124.292 274.828 124.366 274.093C124.403 273.505 124.439 272.916 124.476 272.328C124.513 271.703 124.531 270.729 124.531 269.405V262.622C124.531 261.85 124.531 261.206 124.531 260.692C124.531 260.14 124.513 259.662 124.476 259.258C124.476 258.853 124.458 258.486 124.421 258.155C124.421 257.824 124.403 257.474 124.366 257.107C124.292 256.702 124.182 256.353 124.035 256.059C123.888 255.728 123.759 255.507 123.649 255.397C123.281 254.956 122.822 254.699 122.27 254.625C121.719 254.515 121.149 254.46 120.56 254.46L120.34 254.239V253.467L120.56 253.302H121.553C122.178 253.302 122.969 253.302 123.925 253.302C124.881 253.265 125.708 253.191 126.406 253.081L128.337 252.805L128.667 253.302C128.594 253.449 128.52 253.706 128.447 254.074C128.41 254.441 128.373 254.846 128.337 255.287C128.337 255.691 128.318 256.096 128.281 256.5C128.281 256.905 128.281 257.217 128.281 257.438C128.281 257.732 128.263 258.026 128.226 258.32C128.226 258.577 128.226 258.89 128.226 259.258C128.226 259.625 128.208 260.067 128.171 260.581C128.171 261.096 128.171 261.758 128.171 262.567V268.743C128.171 269.552 128.171 270.214 128.171 270.729C128.208 271.243 128.226 271.685 128.226 272.052C128.263 272.42 128.281 272.769 128.281 273.1C128.318 273.394 128.355 273.725 128.392 274.093C128.465 274.865 128.539 275.453 128.612 275.858C128.723 276.225 128.925 276.538 129.219 276.795C129.513 277.053 129.918 277.218 130.432 277.292C130.984 277.365 131.535 277.402 132.087 277.402L132.362 277.678L132.473 278.395L132.362 278.615ZM123.097 243.595C123.097 242.86 123.336 242.235 123.814 241.72C124.329 241.169 124.954 240.893 125.689 240.893C126.425 240.893 127.05 241.169 127.564 241.72C128.116 242.235 128.392 242.86 128.392 243.595C128.392 244.331 128.116 244.956 127.564 245.47C127.05 245.948 126.425 246.187 125.689 246.187C124.954 246.187 124.329 245.948 123.814 245.47C123.336 244.956 123.097 244.331 123.097 243.595ZM149.755 252.199C151.924 252.199 153.854 252.585 155.546 253.357C157.237 254.092 158.652 255.103 159.792 256.39C160.969 257.64 161.851 259.092 162.439 260.747C163.064 262.401 163.377 264.111 163.377 265.876C163.377 267.567 163.101 269.203 162.55 270.784C161.998 272.365 161.152 273.762 160.013 274.975C158.873 276.189 157.457 277.163 155.766 277.898C154.075 278.634 152.108 279.001 149.865 279.001C147.549 279.001 145.527 278.615 143.799 277.843C142.071 277.071 140.637 276.06 139.497 274.81C138.394 273.56 137.567 272.144 137.015 270.563C136.464 268.946 136.188 267.291 136.188 265.6C136.188 263.798 136.501 262.089 137.126 260.471C137.751 258.853 138.633 257.438 139.773 256.224C140.949 254.974 142.365 254 144.019 253.302C145.711 252.566 147.622 252.199 149.755 252.199ZM149.81 276.85C151.354 276.85 152.715 276.538 153.891 275.913C155.068 275.288 156.042 274.461 156.814 273.431C157.586 272.402 158.156 271.243 158.524 269.957C158.928 268.633 159.13 267.273 159.13 265.876C159.13 264.552 158.91 263.21 158.468 261.85C158.064 260.489 157.457 259.276 156.649 258.21C155.84 257.107 154.847 256.224 153.67 255.563C152.494 254.864 151.134 254.515 149.589 254.515C147.972 254.515 146.575 254.846 145.398 255.507C144.258 256.133 143.302 256.96 142.53 257.989C141.795 259.019 141.243 260.195 140.876 261.519C140.508 262.842 140.324 264.166 140.324 265.49C140.324 266.85 140.526 268.21 140.931 269.571C141.372 270.894 141.997 272.107 142.806 273.21C143.615 274.277 144.608 275.159 145.784 275.858C146.961 276.519 148.303 276.85 149.81 276.85Z" fill="#FFEDED"/>
</svg>
